Coordinates
version=1
nRows=22
nColumns=33
inDegrees=yes

Units are S.I. units (second, meters, Newtons, ...)
Angles are in degrees.

endheader
time	ground_thorax_rot_x	ground_thorax_rot_y	ground_thorax_rot_z	ground_thorax_tx	ground_thorax_ty	ground_thorax_tz	clav_prot_r	clav_elev_r	scapula_abduction_r	scapula_elevation_r	scapula_upward_rot_r	scapula_winging_r	shoulder_elv_r	plane_of_elev_r	axial_rot_r	elbow_flexion_r	pro_sup_r	wrist_flex_r	wrist_dev_r	clav_prot_l	clav_elev_l	scapula_abduction_l	scapula_elevation_l	scapula_upward_rot_l	scapula_winging_l	shoulder_elv_l	plane_of_elev_l	axial_rot_l	elbow_flexion_l	pro_sup_l	wrist_flex_l	wrist_dev_l	
7.8500	30.831998	31.632534	35.895685	-189.748973	816.767421	6.131391	13.688745	45.000000	45.000000	45.000000	44.999993	2134.223426	-3734.230729	-90.000000	-74.579626	2519.082444	-114.931290	19.310211	15.076586	5.330832	-45.000000	-43.001825	45.000000	-6.209359	-3129.732714	-272.704913	14.477405	180.000000	725.291044	213.388035	10.974791	-18.917866	
7.8600	30.495115	32.054013	36.653875	-185.686942	815.343828	6.179659	13.742692	45.000000	45.000000	45.000000	44.999987	2134.015548	-3734.240324	-90.000000	-74.549231	2519.126480	-114.410403	19.137012	14.967321	5.354857	-45.000000	-43.115971	45.000000	-6.339740	-3129.689895	-273.053989	14.502861	180.000000	725.334218	213.715343	11.011173	-18.752328	
7.8700	30.136469	32.461316	37.433028	-181.496020	813.837077	6.221424	13.799709	45.000000	45.000000	45.000000	44.999978	2133.787369	-3734.230184	-90.000000	-74.537137	2519.179903	-113.835071	18.973147	14.848257	5.368454	-45.000000	-43.209184	45.000000	-6.475556	-3129.653506	-273.407099	14.521249	180.000000	725.383147	214.085409	11.033222	-18.584187	
7.8800	29.755837	32.854396	38.233270	-177.177865	812.249631	6.255327	13.858986	45.000000	45.000000	45.000000	44.999960	2133.533314	-3734.214144	-90.000000	-74.529424	2519.228993	-113.203678	18.813797	14.715859	5.377680	-45.000000	-43.286792	45.000000	-6.628790	-3129.619077	-273.769676	14.536497	180.000000	725.437313	214.500113	11.038782	-18.412294	
7.8900	29.354839	33.233228	39.055190	-172.735780	810.584191	6.280375	13.920288	45.000000	45.000000	45.000000	44.999928	2133.254384	-3734.226089	-90.000000	-74.492691	2519.246079	-112.523748	18.622738	14.551780	5.378300	-45.000000	-43.341718	45.000000	-6.811610	-3129.593910	-274.141769	14.548655	180.000000	725.498767	214.954429	11.017290	-18.218350	
7.9000	28.934888	33.596011	39.895869	-168.174600	808.844175	6.296059	13.985296	45.000000	45.000000	45.000000	44.999871	2132.944800	-3734.270148	-90.000000	-74.423215	2519.232276	-111.803686	18.399342	14.359291	5.376656	-45.000000	-43.386580	45.000000	-7.025822	-3129.568497	-274.529948	14.557629	180.000000	725.571615	215.442052	10.970268	-18.003212	
7.9100	28.495564	33.944135	40.760151	-163.500746	807.034441	6.302396	14.056556	45.000000	45.000000	45.000000	44.999768	2132.597569	-3734.381535	-90.000000	-74.286597	2519.157948	-111.055113	18.100198	14.117507	5.383397	-45.000000	-43.412867	45.000000	-7.312984	-3129.547186	-274.942771	14.570589	180.000000	725.652147	215.951292	10.887235	-17.750087	
7.9200	28.042712	34.271122	41.635510	-158.721522	805.161838	6.299875	14.134740	45.000000	45.000000	45.000000	44.999585	2132.220083	-3734.538517	-90.000000	-74.104794	2519.042418	-110.281874	17.767845	13.851671	5.384447	-45.000000	-43.411953	45.000000	-7.682317	-3129.548339	-275.373137	14.578725	180.000000	725.734196	216.473619	10.781424	-17.482019	
7.9300	27.579091	34.574386	42.515772	-153.845386	803.235868	6.289284	14.220623	45.000000	45.000000	45.000000	44.999257	2131.818116	-3734.731954	-90.000000	-73.887034	2518.892554	-109.478352	17.411656	13.567897	5.380823	-45.000000	-43.376327	45.000000	-8.134993	-3129.574765	-275.814895	14.584558	180.000000	725.817480	217.003728	10.655622	-17.204518	
7.9400	27.112335	34.849732	43.386262	-148.881779	801.268920	6.271514	14.317573	45.000000	45.000000	45.000000	44.998669	2131.399631	-3734.936605	-90.000000	-73.658304	2518.726670	-108.635124	17.065381	13.286543	5.366939	-45.000000	-43.304269	45.000000	-8.660272	-3129.631142	-276.264448	14.588146	180.000000	725.902961	217.539748	10.516399	-16.931657	
7.9500	26.641192	35.099564	44.248887	-143.841486	799.276290	6.247386	14.424080	45.000000	45.000000	45.000000	44.997615	2130.968687	-3735.149844	-90.000000	-73.421006	2518.542683	-107.735379	16.725868	13.001203	5.349179	-45.000000	-43.185512	45.000000	-9.272035	-3129.724195	-276.716323	14.592115	180.000000	725.986469	218.080723	10.363457	-16.663260	
7.9600	26.167447	35.323569	45.099285	-138.736778	797.275798	6.217553	14.543235	45.000000	45.000000	45.000000	44.995728	2130.527295	-3735.377154	-90.000000	-73.169594	2518.339392	-106.769783	16.403744	12.720710	5.335097	-45.000000	-43.021975	45.000000	-9.993821	-3129.864246	-277.173142	14.596219	180.000000	726.061102	218.624105	10.197338	-16.404199	
7.9700	25.689061	35.524088	45.942508	-133.581934	795.287288	6.182502	14.669591	45.000000	45.000000	45.000000	44.992350	2130.078914	-3735.613848	-90.000000	-72.908720	2518.117347	-105.723258	16.101951	12.442266	5.326189	-45.000000	-42.812218	45.000000	-10.810469	-3130.052205	-277.622778	14.595869	180.000000	726.133440	219.170022	10.021598	-16.154011	
7.9800	25.209116	35.703016	46.774471	-128.393375	793.331883	6.142618	14.806423	45.000000	45.000000	45.000000	44.986290	2129.626287	-3735.865283	-90.000000	-72.633017	2517.871896	-104.572628	15.822499	12.162180	5.320779	-45.000000	-42.554562	45.000000	-11.762591	-3130.304300	-278.070180	14.589380	180.000000	726.184436	219.717512	9.832292	-15.914305	
7.9900	24.725253	35.862793	47.598221	-123.189474	791.431109	6.098279	14.952023	45.000000	45.000000	45.000000	44.975457	2129.174435	-3736.113965	-90.000000	-72.359726	2517.609149	-103.292828	15.583474	11.886697	5.306134	-45.000000	-42.246653	45.000000	-12.802925	-3130.616769	-278.494878	14.571005	180.000000	726.225857	220.274275	9.637648	-15.689962	
8.0000	24.239235	36.005288	48.409020	-117.990825	789.606315	6.049967	15.114909	45.000000	45.000000	45.000000	44.955994	2128.724982	-3736.365082	-90.000000	-72.083562	2517.324494	-101.865910	15.385369	11.621408	5.286545	-45.000000	-41.894112	45.000000	-13.945063	-3130.989581	-278.901550	14.548670	180.000000	726.248754	220.847092	9.434711	-15.482170	
8.0100	23.743715	36.134514	49.227726	-112.819903	787.878059	5.998393	15.310488	45.000000	45.000000	45.000000	44.921293	2128.281416	-3736.610067	-90.000000	-71.813126	2517.017603	-100.291978	15.227536	11.377290	5.279173	-45.000000	-41.489672	45.000000	-15.166917	-3131.402563	-279.273979	14.539613	180.000000	726.284035	221.446385	9.232322	-15.288917	
8.0200	23.242400	36.257956	50.048013	-107.700981	786.265877	5.944610	15.525067	45.000000	45.000000	45.000000	44.858676	2127.850441	-3736.861046	-90.000000	-71.536360	2516.681947	-98.559014	15.092665	11.140053	5.280041	-45.000000	-41.039817	45.000000	-16.526824	-3131.871982	-279.627954	14.543780	180.000000	726.296342	222.072533	9.020325	-15.107634	
8.0300	22.725859	36.386378	50.898379	-102.659517	784.787932	5.890094	15.784463	45.000000	45.000000	45.000000	44.747787	2127.446495	-3737.101372	-90.000000	-71.269960	2516.329054	-96.677683	14.988818	10.924982	5.300068	-45.000000	-40.526404	45.000000	-18.026927	-3132.390751	-279.949377	14.573434	180.000000	726.309467	222.731612	8.812987	-14.943069	
8.0400	22.177175	36.535390	51.802493	-97.721958	783.461057	5.836800	16.061743	45.000000	45.000000	45.000000	44.545594	2127.074642	-3737.344822	-90.000000	-71.000155	2515.956742	-94.652507	14.912282	10.716397	5.331687	-45.000000	-39.969718	45.000000	-19.711479	-3132.968314	-280.241151	14.610461	180.000000	726.283080	223.419320	8.599042	-14.792727	
8.0500	21.560493	36.726089	52.840965	-92.915308	782.300393	5.787160	16.380009	45.000000	45.000000	45.000000	44.193343	2126.750202	-3737.587855	-90.000000	-70.730708	2515.573262	-92.531930	14.869212	10.523917	5.404094	-45.000000	-39.355042	45.000000	-21.586588	-3133.571624	-280.481837	14.664556	180.000000	726.248822	224.134550	8.387859	-14.651791	
8.0600	20.869447	36.962782	54.011745	-88.266024	781.318813	5.744033	16.692057	45.000000	45.000000	45.000000	43.666010	2126.479303	-3737.826044	-90.000000	-70.465890	2515.193562	-90.346269	14.875487	10.334081	5.485906	-45.000000	-38.714192	45.000000	-23.615403	-3134.206616	-280.661924	14.697747	180.000000	726.169479	224.871581	8.171717	-14.521629	
